{
    "asset" : {
        "generator" : "Khronos glTF Blender I/O v0.9.36",
        "version" : "2.0"
    },
    "scene" : 0,
    "scenes" : [
        {
            "name" : "Scene",
            "nodes" : [
                0
            ]
        }
    ],
    "nodes" : [
        {
            "mesh" : 0,
            "name" : "muro",
            "rotation" : [
                0.7071067690849304,
                0,
                0,
                0.7071067690849304
            ]
        }
    ],
    "materials" : [
        {
            "doubleSided" : true,
            "name" : "a_blinn4SG",
            "pbrMetallicRoughness" : {
                "baseColorFactor" : [
                    0.800000011920929,
                    0.800000011920929,
                    0.800000011920929,
                    1
                ],
                "metallicFactor" : 0,
                "roughnessFactor" : 0.5
            }
        },
        {
            "doubleSided" : true,
            "name" : "a_blinn2SG",
            "pbrMetallicRoughness" : {
                "baseColorFactor" : [
                    0.800000011920929,
                    0.800000011920929,
                    0.800000011920929,
                    1
                ],
                "metallicFactor" : 0,
                "roughnessFactor" : 0.5
            }
        },
        {
            "doubleSided" : true,
            "name" : "a_pasted__blinn10SG",
            "pbrMetallicRoughness" : {
                "baseColorFactor" : [
                    0.800000011920929,
                    0.800000011920929,
                    0.800000011920929,
                    1
                ],
                "metallicFactor" : 0,
                "roughnessFactor" : 0.5
            }
        }
    ],
    "meshes" : [
        {
            "name" : "muro",
            "primitives" : [
                {
                    "attributes" : {
                        "POSITION" : 0,
                        "NORMAL" : 1,
                        "TEXCOORD_0" : 2
                    },
                    "indices" : 3,
                    "material" : 0
                },
                {
                    "attributes" : {
                        "POSITION" : 4,
                        "NORMAL" : 5,
                        "TEXCOORD_0" : 6
                    },
                    "indices" : 7,
                    "material" : 1
                },
                {
                    "attributes" : {
                        "POSITION" : 8,
                        "NORMAL" : 9,
                        "TEXCOORD_0" : 10
                    },
                    "indices" : 11,
                    "material" : 2
                }
            ]
        }
    ],
    "accessors" : [
        {
            "bufferView" : 0,
            "componentType" : 5126,
            "count" : 1445,
            "max" : [
                11.448036193847656,
                12.449600219726562,
                -148.18858337402344
            ],
            "min" : [
                -11.448036193847656,
                -12.915817260742188,
                -180.87559509277344
            ],
            "type" : "VEC3"
        },
        {
            "bufferView" : 1,
            "componentType" : 5126,
            "count" : 1445,
            "type" : "VEC3"
        },
        {
            "bufferView" : 2,
            "componentType" : 5126,
            "count" : 1445,
            "type" : "VEC2"
        },
        {
            "bufferView" : 3,
            "componentType" : 5123,
            "count" : 7782,
            "type" : "SCALAR"
        },
        {
            "bufferView" : 4,
            "componentType" : 5126,
            "count" : 4430,
            "max" : [
                51.252166748046875,
                18.752120971679688,
                0.22936999797821045
            ],
            "min" : [
                -51.252166748046875,
                -28.154312133789062,
                -164.18453979492188
            ],
            "type" : "VEC3"
        },
        {
            "bufferView" : 5,
            "componentType" : 5126,
            "count" : 4430,
            "type" : "VEC3"
        },
        {
            "bufferView" : 6,
            "componentType" : 5126,
            "count" : 4430,
            "type" : "VEC2"
        },
        {
            "bufferView" : 7,
            "componentType" : 5123,
            "count" : 22542,
            "type" : "SCALAR"
        },
        {
            "bufferView" : 8,
            "componentType" : 5126,
            "count" : 220,
            "max" : [
                4.938746929168701,
                8.14693546295166,
                -166.95681762695312
            ],
            "min" : [
                -4.9712910652160645,
                5.249118804931641,
                -170.32806396484375
            ],
            "type" : "VEC3"
        },
        {
            "bufferView" : 9,
            "componentType" : 5126,
            "count" : 220,
            "type" : "VEC3"
        },
        {
            "bufferView" : 10,
            "componentType" : 5126,
            "count" : 220,
            "type" : "VEC2"
        },
        {
            "bufferView" : 11,
            "componentType" : 5123,
            "count" : 1230,
            "type" : "SCALAR"
        }
    ],
    "bufferViews" : [
        {
            "buffer" : 0,
            "byteLength" : 17340,
            "byteOffset" : 0
        },
        {
            "buffer" : 0,
            "byteLength" : 17340,
            "byteOffset" : 17340
        },
        {
            "buffer" : 0,
            "byteLength" : 11560,
            "byteOffset" : 34680
        },
        {
            "buffer" : 0,
            "byteLength" : 15564,
            "byteOffset" : 46240
        },
        {
            "buffer" : 0,
            "byteLength" : 53160,
            "byteOffset" : 61804
        },
        {
            "buffer" : 0,
            "byteLength" : 53160,
            "byteOffset" : 114964
        },
        {
            "buffer" : 0,
            "byteLength" : 35440,
            "byteOffset" : 168124
        },
        {
            "buffer" : 0,
            "byteLength" : 45084,
            "byteOffset" : 203564
        },
        {
            "buffer" : 0,
            "byteLength" : 2640,
            "byteOffset" : 248648
        },
        {
            "buffer" : 0,
            "byteLength" : 2640,
            "byteOffset" : 251288
        },
        {
            "buffer" : 0,
            "byteLength" : 1760,
            "byteOffset" : 253928
        },
        {
            "buffer" : 0,
            "byteLength" : 2460,
            "byteOffset" : 255688
        }
    ],
    "buffers" : [
        {
            "byteLength" : 258148,
            "uri" : "data:application/octet-stream;base64,"
        }
    ]
}
